<svg xmlns="http://www.w3.org/2000/svg" width="16" height="16" viewBox="0 0 32 32" xml:space="preserve"><path d="M8 10.5a.5.5 0 0 1 .5-.5h3a.5.5 0 0 1 0 1h-3a.5.5 0 0 1-.5-.5m.5 2.5h3a.5.5 0 0 0 0-1h-3a.5.5 0 0 0 0 1M30 8v18a3 3 0 0 1-3 3H5a3 3 0 0 1-3-3V8a3 3 0 0 1 3-3s.448-1 1-1h3.092c.207-.581.757-1 1.408-1s1.201.419 1.408 1H14a1 1 0 0 1 1 1h12a3 3 0 0 1 3 3M6 15h8V5h-2v2.5c0 .892-.783 1.605-1.697 1.487C9.547 8.89 9 8.21 9 7.448V7.25a.5.5 0 0 1 1 0v.25a.5.5 0 0 0 .584.493c.246-.04.416-.272.416-.521V5H6zm22.976 11.242A2.98 2.98 0 0 1 27 27H5a2.98 2.98 0 0 1-1.976-.758A1.994 1.994 0 0 0 5 28h22a1.994 1.994 0 0 0 1.976-1.758M29 8a2 2 0 0 0-2-2H15v9a1 1 0 0 1-1 1H6a1 1 0 0 1-1-1V6a2 2 0 0 0-2 2v16a2 2 0 0 0 2 2h22a2 2 0 0 0 2-2zm-2.309 6.038A.5.5 0 0 0 26.5 14h-4a.5.5 0 0 0 0 1h2.793l-3 3h-1.586l-1.854-1.854a.5.5 0 0 0-.707 0L15.293 19H11.5a.5.5 0 0 0-.354.146L8.293 22H5.5a.5.5 0 0 0 0 1h3c.133 0 .26-.053.354-.146L11.707 20H15.5c.133 0 .26-.053.354-.146l2.646-2.646 1.646 1.646A.5.5 0 0 0 20.5 19h2c.133 0 .26-.053.354-.146L26 15.707V18.5a.5.5 0 0 0 1 0v-4a.5.5 0 0 0-.309-.462" style="fill:#fff"/></svg>