<?xml version="1.0" standalone="no"?>
<!DOCTYPE svg PUBLIC "-//W3C//DTD SVG 20010904//EN"
 "http://www.w3.org/TR/2001/REC-SVG-20010904/DTD/svg10.dtd">
<svg version="1.0" xmlns="http://www.w3.org/2000/svg"
 width="768.000000pt" height="1024.000000pt" viewBox="0 0 768.000000 1024.000000"
 preserveAspectRatio="xMidYMid meet">

<g transform="translate(0.000000,1024.000000) scale(0.100000,-0.100000)"
fill="#000000" stroke="none">
<path d="M0 5120 l0 -5120 3840 0 3840 0 0 5120 0 5120 -3840 0 -3840 0 0
-5120z m3701 3170 c63 -19 174 -81 174 -97 1 -4 14 -33 29 -63 l29 -54 -52 57
c-35 38 -75 67 -119 89 -63 31 -73 33 -172 33 -95 0 -110 -3 -162 -28 -31 -16
-83 -54 -116 -85 -67 -64 -102 -138 -103 -220 -1 -72 -15 -143 -30 -153 -8 -5
-139 -9 -291 -9 -333 0 -307 13 -309 -155 -1 -60 -4 -99 -6 -85 -3 14 -10 31
-16 39 -10 11 -13 9 -18 -10 -4 -13 -7 31 -8 99 -2 196 -9 192 323 192 l246 0
21 42 c12 24 32 74 45 112 32 92 63 143 122 198 113 106 269 143 413 98z
m-243 -97 c-9 -12 -9 -15 0 -9 6 4 12 3 12 -2 0 -5 -24 -10 -52 -10 l-53 -1
24 20 c13 11 29 18 35 16 6 -2 17 3 25 11 20 20 28 -2 9 -25z m-8 -86 c0 -2
-10 -12 -22 -23 l-23 -19 19 23 c18 21 26 27 26 19z m352 -222 c-7 -78 -64
-151 -138 -175 -52 -17 -145 -7 -190 20 -44 28 -28 45 22 24 55 -23 140 -18
190 11 43 25 94 106 94 148 0 11 5 17 13 14 7 -2 11 -18 9 -42z m541 -45 c144
0 268 -4 275 -9 10 -6 6 -15 -18 -35 l-32 -26 -277 0 c-262 0 -279 1 -295 19
-10 11 -16 28 -13 38 4 15 5 14 6 -4 0 -12 7 -25 14 -29 6 -4 9 -4 5 1 -4 4 4
21 18 38 17 20 23 36 19 51 -4 14 1 10 15 -11 l22 -33 261 0z m1095 -332 c61
-43 57 44 60 -1182 1 -616 -1 -1123 -6 -1128 -4 -4 -57 -3 -117 2 -61 6 -199
18 -307 28 -108 10 -201 21 -205 26 -4 4 -10 303 -13 664 l-5 657 -184 3
c-122 2 -188 -1 -195 -8 -7 -7 -11 -96 -12 -258 0 -136 -1 -424 -2 -639 l-2
-393 -60 0 -60 0 -1 58 c-4 417 -12 698 -18 705 -4 4 -90 6 -192 5 l-184 -3
-5 -450 -5 -450 -65 0 -65 0 -5 305 -5 305 -195 0 -195 0 -3 -307 -2 -308 -58
0 c-31 0 -63 4 -69 8 -10 6 -13 83 -15 307 l-3 300 -189 3 c-145 2 -191 -1
-198 -10 -4 -7 -8 -147 -8 -311 l0 -298 -61 3 -60 3 -6 160 c-3 103 -9 163
-17 167 -18 11 -370 -3 -379 -16 -4 -6 -7 -78 -5 -161 l3 -150 -93 -5 c-83 -4
-96 -8 -113 -29 -26 -32 -24 -77 6 -106 l24 -25 992 0 c868 0 990 -2 985 -15
-5 -15 -163 -753 -242 -1135 -24 -118 -48 -231 -52 -250 -8 -34 -8 -34 -87
-46 -44 -7 -222 -39 -395 -72 -391 -76 -680 -125 -875 -151 -218 -28 -640 -64
-670 -57 -14 4 -40 19 -58 35 l-32 29 -3 2054 c-2 1523 1 2060 9 2081 6 15 24
36 39 47 26 19 45 20 324 20 290 0 296 0 286 -19 -5 -11 -10 -73 -10 -139 0
-107 2 -122 23 -152 12 -18 40 -43 62 -54 40 -21 44 -21 1160 -21 l1120 0 47
27 c67 40 88 89 88 206 0 50 -5 103 -10 118 -8 19 -8 29 0 34 6 4 136 7 288 6
241 -1 280 -3 300 -18z m-898 -2263 l115 -14 -100 6 c-55 3 -134 9 -175 13
l-75 7 60 1 c33 0 112 -6 175 -13z m-27 -32 c-7 -2 -19 -2 -25 0 -7 3 -2 5 12
5 14 0 19 -2 13 -5z m95 -10 c-10 -2 -26 -2 -35 0 -10 3 -2 5 17 5 19 0 27 -2
18 -5z m1319 -78 c336 -28 384 -33 402 -44 19 -12 -236 -21 -319 -11 -41 5
-86 10 -100 11 -17 1 -20 3 -7 6 24 6 21 22 -5 28 -13 2 -86 10 -163 16 -77 6
-142 13 -144 15 -7 7 30 5 336 -21z m-782 -149 c816 -82 981 -100 993 -111 15
-13 11 -39 -34 -260 -18 -88 -30 -128 -32 -109 -3 29 -8 33 -50 44 -94 25
-112 28 -106 19 7 -12 -4 -11 -65 3 -28 6 -48 15 -46 19 7 11 -51 22 -75 14
-16 -5 -19 -11 -14 -23 4 -10 8 -51 9 -92 2 -65 -1 -78 -21 -100 -19 -21 -22
-35 -20 -82 l2 -58 -38 0 c-21 0 -38 3 -38 8 0 4 -21 6 -47 5 l-48 -1 40 7
c22 5 34 9 28 10 -7 0 -13 6 -13 12 0 5 5 7 10 4 6 -3 10 3 10 14 0 12 6 21
13 22 6 0 3 4 -8 8 -11 5 -36 7 -55 5 -26 -3 -30 -2 -15 5 18 7 17 9 -10 13
-17 3 -39 9 -49 13 -14 6 -17 5 -12 -3 11 -18 0 -14 -15 5 -12 15 -12 16 1 8
8 -4 3 3 -12 18 -32 30 -34 39 -12 72 17 26 57 34 70 14 11 -19 73 -40 99 -33
19 5 25 13 25 34 0 33 -10 42 -60 50 -34 5 -35 7 -35 50 l0 45 -51 7 c-50 7
-52 7 -95 -34 -24 -23 -35 -36 -24 -28 18 14 19 14 7 -2 -8 -10 -17 -17 -20
-16 -19 2 -33 -3 -28 -10 3 -5 0 -9 -7 -9 -7 0 -26 -8 -41 -19 l-29 -18 24 -7
c13 -4 43 -7 67 -8 49 -1 58 -13 47 -67 l-6 -36 -87 6 c-98 7 -137 -4 -79 -23
32 -11 35 -14 25 -31 -16 -25 -11 -29 58 -39 89 -13 29 -13 -86 0 -77 9 -97
14 -86 23 8 6 16 18 18 26 2 8 10 20 18 27 13 11 13 13 0 14 -8 0 -4 5 10 9
22 7 20 8 -15 9 -59 2 -69 11 -62 62 3 24 13 48 21 55 9 6 12 15 8 19 -4 5 -1
5 5 1 14 -8 108 59 108 76 0 6 8 12 19 14 10 1 23 7 29 13 14 14 3 17 -108 33
l-91 14 -28 -128 -29 -128 -49 0 c-36 0 -50 4 -55 16 -5 14 12 103 44 224 3
12 2 20 -3 18 -5 -1 -32 1 -60 5 -28 4 -62 4 -74 -1 -23 -9 -23 -9 -3 -23 71
-50 48 -150 -42 -189 -25 -11 -45 -26 -45 -35 0 -10 -10 -15 -30 -15 -24 0
-30 4 -30 23 -1 15 -14 30 -44 48 -24 15 -46 36 -49 49 -3 12 -3 19 0 16 4 -3
12 3 20 14 18 25 28 25 64 -1 35 -25 92 -23 97 3 3 13 -11 24 -51 41 -29 14
-63 37 -75 52 -12 15 -22 24 -22 19 0 -4 10 -18 22 -31 17 -19 19 -23 5 -17
-12 4 -17 1 -17 -11 0 -9 -4 -14 -9 -11 -8 5 -25 -21 -23 -34 0 -3 -33 -5 -75
-4 -52 1 -84 -4 -108 -16 -23 -12 -38 -14 -50 -8 -9 6 -19 8 -21 5 -3 -3 -8
-37 -11 -76 -7 -85 2 -101 61 -102 22 -1 33 -3 22 -6 -29 -8 -104 7 -109 20
-3 7 8 78 24 158 74 374 92 454 109 469 19 17 -36 21 725 -54z m1222 -88 c13
-12 23 -31 23 -42 0 -13 -3 -16 -8 -10 -4 6 -17 14 -29 18 -16 5 -23 15 -23
32 0 30 7 30 37 2z m-1630 -310 c-3 -8 -6 -5 -6 6 -1 11 2 17 5 13 3 -3 4 -12
1 -19z m1012 -65 c0 -25 -1 -26 -9 -8 -12 27 -12 35 0 35 6 0 10 -12 9 -27z
m-698 -46 c-14 -14 -24 12 -16 41 l8 27 8 -30 c5 -16 5 -33 0 -38z m1016 -39
c-3 -7 -5 -2 -5 12 0 14 2 19 5 13 2 -7 2 -19 0 -25z m-1574 -55 c-7 -2 -21
-2 -30 0 -10 3 -4 5 12 5 17 0 24 -2 18 -5z m735 0 c-10 -2 -26 -2 -35 0 -10
3 -2 5 17 5 19 0 27 -2 18 -5z m-650 -10 c-10 -2 -26 -2 -35 0 -10 3 -2 5 17
5 19 0 27 -2 18 -5z m475 -50 c-7 -2 -21 -2 -30 0 -10 3 -4 5 12 5 17 0 24 -2
18 -5z m345 -40 c-10 -2 -26 -2 -35 0 -10 3 -2 5 17 5 19 0 27 -2 18 -5z m80
-10 c-10 -2 -26 -2 -35 0 -10 3 -2 5 17 5 19 0 27 -2 18 -5z m265 -30 c-7 -2
-21 -2 -30 0 -10 3 -4 5 12 5 17 0 24 -2 18 -5z m174 -19 c-3 -3 -12 -4 -19
-1 -8 3 -5 6 6 6 11 1 17 -2 13 -5z m76 -11 c-7 -2 -21 -2 -30 0 -10 3 -4 5
12 5 17 0 24 -2 18 -5z m-1609 -77 c65 -8 123 -19 128 -24 6 -6 3 -43 -7 -98
-21 -114 -23 -121 -40 -128 -22 -8 -279 25 -291 38 -9 8 -7 36 7 106 10 52 21
100 23 107 7 16 32 16 180 -1z m614 -107 c3 -40 -23 -178 -37 -192 -10 -10
-291 19 -304 32 -12 12 30 203 48 217 10 7 54 6 152 -5 l138 -16 3 -36z m1291
-58 c53 -18 124 -51 161 -76 120 -80 232 -212 228 -270 0 -16 6 -52 16 -79 21
-60 33 -180 26 -261 -4 -52 -7 -57 -17 -40 -9 14 -13 16 -13 5 -1 -13 -2 -13
-9 0 -5 8 -5 44 0 80 12 83 9 91 -32 80 -17 -5 -50 -9 -74 -8 -24 0 -48 -3
-54 -6 -6 -4 -18 -1 -26 7 -12 13 -9 20 21 56 20 22 33 41 30 41 -5 0 -172
-185 -371 -409 -102 -116 -120 -131 -153 -131 -11 0 -72 48 -137 106 -64 58
-119 103 -122 100 -3 -3 -18 3 -33 14 -15 11 -30 16 -34 12 -4 -4 -6 0 -4 8 2
8 -3 14 -10 12 -8 -1 -11 2 -7 8 5 8 12 7 23 -2 10 -6 26 -19 37 -28 12 -8 -2
8 -30 35 -27 28 -52 49 -54 48 -2 -2 3 -11 12 -21 16 -18 16 -20 -1 -35 -10
-10 -21 -17 -25 -17 -3 0 -18 -11 -33 -24 -58 -53 -69 -61 -76 -59 -10 4 -10
5 7 -55 9 -29 21 -52 28 -52 8 0 7 -4 -3 -10 -28 -17 -110 130 -136 245 -16
72 -18 212 -3 275 31 135 171 317 304 395 l68 39 -29 14 c-27 12 -26 12 24 7
36 -4 70 -1 100 9 72 23 89 25 202 22 87 -2 121 -8 199 -35z m-1975 -216 c118
-15 140 -24 132 -55 -3 -8 -12 -52 -21 -96 -10 -45 -21 -87 -25 -94 -10 -17
-287 13 -306 32 -10 10 -9 32 7 107 10 52 24 100 30 108 14 17 36 16 183 -2z
m1001 -96 c104 -10 149 -25 116 -37 -29 -10 -62 -58 -112 -159 -42 -86 -55
-104 -77 -109 -116 -25 -202 -66 -202 -96 0 -12 -3 -19 -6 -15 -11 11 62 403
80 425 7 9 23 12 50 8 23 -3 91 -11 151 -17z m-596 -344 c69 -8 129 -19 134
-24 12 -12 -27 -199 -44 -216 -11 -10 -39 -10 -149 2 -74 8 -140 20 -147 27
-9 8 -7 33 8 105 10 52 24 100 30 108 14 16 15 16 168 -2z"/>
<path d="M3518 6939 l-3 -53 -45 -11 c-89 -23 -156 -77 -179 -144 -17 -51 -13
-131 9 -178 30 -68 93 -100 301 -157 72 -20 102 -44 102 -81 0 -49 -42 -75
-121 -75 -55 0 -79 6 -143 36 -91 43 -115 41 -155 -11 -49 -65 -13 -104 143
-154 l83 -26 0 -45 c0 -26 5 -51 12 -58 13 -13 96 -16 115 -4 6 4 13 32 15 61
l3 54 48 12 c112 28 181 113 180 220 -1 131 -68 188 -299 255 -92 26 -126 52
-122 93 7 74 120 95 232 44 32 -15 66 -27 76 -27 21 0 80 64 80 86 0 43 -67
85 -158 100 l-41 6 -3 52 -3 51 -62 3 -62 3 -3 -52z"/>
<path d="M2243 4643 c15 -2 37 -2 50 0 12 2 0 4 -28 4 -27 0 -38 -2 -22 -4z"/>
<path d="M2708 4643 c7 -3 16 -2 19 1 4 3 -2 6 -13 5 -11 0 -14 -3 -6 -6z"/>
<path d="M2950 4640 c118 -3 209 -7 202 -8 -8 -1 -34 -22 -58 -47 l-45 -45
-182 -3 c-100 -1 62 -3 359 -5 598 -2 568 -5 566 61 -2 59 11 57 -546 55 -371
-2 -452 -4 -296 -8z"/>
<path d="M2192 4544 c10 -10 20 -16 22 -13 3 3 -5 11 -17 18 -21 13 -21 12 -5
-5z"/>
<path d="M2353 4533 c48 -2 125 -2 170 0 45 1 6 3 -88 3 -93 0 -130 -2 -82 -3z"/>
<path d="M2196 4309 c-31 -25 -34 -61 -6 -89 19 -19 33 -20 550 -20 517 0 531
1 550 20 21 21 26 55 11 79 -17 26 -99 30 -587 31 -482 0 -492 0 -518 -21z"/>
<path d="M3666 3972 c-3 -5 1 -9 9 -9 8 0 12 4 9 9 -3 4 -7 8 -9 8 -2 0 -6 -4
-9 -8z"/>
<path d="M3624 3944 c-18 -14 -18 -15 4 -4 12 6 22 13 22 15 0 8 -5 6 -26 -11z"/>
<path d="M3563 3909 c-35 -22 -46 -37 -15 -20 22 13 58 40 52 41 -3 0 -20 -10
-37 -21z"/>
<path d="M3483 3859 c-35 -22 -46 -37 -15 -20 22 13 58 40 52 41 -3 0 -20 -10
-37 -21z"/>
<path d="M3258 3726 c-78 -44 -88 -58 -13 -17 55 30 86 51 75 51 -3 0 -31 -15
-62 -34z"/>
<path d="M3800 3741 c0 -6 4 -13 10 -16 6 -3 7 1 4 9 -7 18 -14 21 -14 7z"/>
<path d="M3108 3644 c-38 -20 -36 -28 2 -9 17 9 30 18 30 20 0 7 -1 6 -32 -11z"/>
<path d="M2775 3484 c-27 -13 -39 -21 -25 -18 29 7 100 43 85 43 -5 0 -32 -12
-60 -25z"/>
<path d="M2690 3450 c-8 -5 -10 -10 -5 -10 6 0 17 5 25 10 8 5 11 10 5 10 -5
0 -17 -5 -25 -10z"/>
</g>
</svg>
