<?xml version="1.0" standalone="no"?>
<!DOCTYPE svg PUBLIC "-//W3C//DTD SVG 20010904//EN"
 "http://www.w3.org/TR/2001/REC-SVG-20010904/DTD/svg10.dtd">
<svg version="1.0" xmlns="http://www.w3.org/2000/svg"
 width="768.000000pt" height="1024.000000pt" viewBox="0 0 768.000000 1024.000000"
 preserveAspectRatio="xMidYMid meet">

<g transform="translate(0.000000,1024.000000) scale(0.100000,-0.100000)"
fill="#000000" stroke="none">
<path d="M3522 8105 c-23 -10 -31 -11 -25 -2 4 7 -4 5 -17 -4 -33 -21 -72 -79
-65 -96 2 -8 0 -11 -5 -8 -12 7 -6 -53 11 -121 43 -170 309 -174 360 -5 17 59
0 143 -38 184 -60 63 -148 84 -221 52z m141 -29 c43 -17 93 -76 106 -123 17
-60 -16 -153 -54 -153 -7 0 -15 -7 -18 -14 -10 -26 -83 -39 -139 -26 -127 31
-166 163 -78 264 54 61 118 80 183 52z"/>
<path d="M4613 7834 c4 -4 -1 -16 -10 -27 -17 -18 -17 -19 2 -33 19 -14 20
-26 18 -186 -2 -152 -4 -174 -21 -190 -17 -18 -59 -19 -783 -28 -869 -11
-1169 -19 -1169 -30 0 -15 98 -20 409 -22 174 -1 282 -4 241 -5 -51 -3 -70 -7
-60 -13 11 -7 6 -10 -20 -12 -19 -1 -1 -4 40 -8 41 -4 -95 -7 -302 -8 l-378
-2 -16 24 c-12 20 -16 66 -20 238 -3 117 -7 214 -9 216 -2 2 -13 1 -24 -3 -18
-5 -21 -15 -21 -55 0 -43 -5 -55 -42 -99 -28 -32 -52 -50 -68 -52 -20 -1 -21
-2 -5 -6 19 -4 20 -10 17 -141 -3 -130 -2 -139 20 -171 13 -19 39 -44 58 -55
35 -21 43 -21 1150 -21 1111 0 1115 0 1155 21 23 12 49 37 63 60 20 35 22 50
19 154 -1 63 -6 123 -11 133 -8 17 6 18 297 15 168 -2 300 0 294 4 -7 4 -122
8 -257 8 l-245 1 -55 37 c-30 20 -63 52 -73 70 l-19 32 169 2 c92 2 260 2 372
0 174 -2 210 -5 245 -21 63 -29 122 -86 153 -148 25 -52 27 -67 27 -168 0
-250 -8 -754 -11 -682 -3 68 -6 77 -18 67 -8 -7 -15 -18 -15 -24 0 -12 -40
-42 -52 -38 -5 1 -8 -5 -8 -13 0 -8 -4 -15 -10 -15 -5 0 -10 4 -10 9 0 5 -4
43 -10 83 -5 40 -12 93 -14 118 -2 25 -7 70 -10 100 -3 30 -8 118 -11 195 -8
202 -44 325 -109 365 -15 10 -14 5 7 -19 15 -18 28 -40 28 -49 4 -45 -3 -2248
-7 -2251 -4 -4 -408 28 -576 46 l-58 6 -1 151 c-1 131 -13 313 -17 264 -1 -11
-10 -18 -21 -18 -11 0 -23 -5 -26 -10 -16 -26 -91 -52 -168 -57 -115 -8 -129
-7 -144 13 -11 16 -13 12 -13 -27 0 -45 -12 -284 -14 -284 0 -1 -29 1 -63 3
l-63 4 0 124 c0 81 -4 123 -10 119 -5 -3 -10 1 -10 11 0 15 -8 16 -72 10 -120
-11 -153 -17 -163 -27 -5 -5 -18 -9 -30 -9 -12 0 -26 -5 -32 -11 -7 -7 -23
-13 -37 -14 -20 -3 -26 2 -28 18 -1 12 -5 -63 -8 -168 l-5 -190 -67 -3 -68 -3
0 84 c0 135 -12 271 -22 253 -5 -9 -20 -16 -33 -16 -14 0 -25 -5 -25 -11 0 -5
-4 -7 -10 -4 -5 3 -10 1 -10 -4 0 -6 -10 -11 -23 -11 -13 0 -27 -3 -31 -7 -4
-4 -13 -8 -19 -8 -93 -5 -199 -20 -205 -29 -4 -6 -10 16 -13 49 -3 36 -6 -11
-7 -117 l-2 -178 -70 0 -70 0 -1 93 c0 60 -3 85 -9 72 -8 -18 -9 -18 -10 5 -1
23 -2 23 -10 5 -5 -11 -9 -16 -9 -11 -1 5 -10 1 -20 -8 -15 -14 -44 -19 -128
-23 -98 -4 -110 -7 -131 -29 -13 -13 -27 -22 -32 -19 -5 3 -12 0 -17 -7 -5 -8
-10 3 -14 32 -6 36 -7 31 -6 -29 l0 -75 -334 -2 c-357 -1 -387 -5 -408 -50
-17 -38 -13 -63 14 -89 l24 -25 981 0 c930 0 981 -1 976 -17 -9 -32 -202 -934
-221 -1033 -10 -56 -87 -415 -89 -418 -4 -3 -738 -137 -941 -171 -353 -59
-677 -91 -918 -91 -151 0 -184 9 -206 57 -8 17 -11 468 -11 1526 0 834 -4
1495 -9 1487 -5 -8 -11 -181 -15 -385 -3 -203 -13 -458 -21 -565 -9 -107 -20
-286 -24 -398 -6 -158 -10 -205 -21 -212 -9 -6 -17 -4 -22 3 -6 9 -8 9 -8 0 0
-9 -18 -13 -55 -13 -49 0 -55 -2 -59 -22 -8 -38 -17 -90 -25 -148 -6 -38 -9
15 -10 171 -5 772 -15 1457 -23 1453 -4 -3 -8 5 -8 17 0 18 -2 19 -15 9 -13
-11 -15 -2 -17 66 -7 271 -14 -745 -14 -1831 l1 -1280 22 -53 c43 -106 135
-195 237 -229 47 -16 133 -18 1062 -21 l1011 -3 18 -40 c20 -42 84 -108 132
-132 39 -21 95 -30 478 -76 182 -22 535 -66 785 -97 250 -31 500 -57 555 -58
88 -1 107 2 156 25 31 15 75 43 97 64 40 36 43 37 134 40 115 5 190 24 294 75
157 76 297 239 350 404 34 107 42 243 20 346 -21 100 -92 241 -157 310 -28 30
-45 47 -38 36 7 -10 14 -25 15 -33 1 -8 20 -49 42 -91 22 -42 48 -108 56 -145
18 -76 21 -135 4 -77 -15 55 -27 64 -52 42 -12 -11 -26 -18 -33 -15 -6 2 -14
-1 -18 -6 -3 -6 -16 -11 -29 -11 -12 0 -27 -5 -34 -12 -18 -18 -25 -3 -11 24
7 12 14 28 14 33 1 6 5 18 9 27 4 10 6 23 3 30 -3 7 -6 4 -6 -7 -1 -11 -58
-86 -127 -165 -70 -80 -177 -203 -238 -275 -61 -71 -115 -133 -121 -137 -5 -4
-22 -8 -38 -8 -21 0 -67 34 -198 147 -163 140 -171 148 -167 179 2 18 0 30 -4
28 -4 -3 -8 -19 -8 -35 0 -22 -7 -32 -25 -41 -14 -6 -25 -15 -25 -19 0 -11
-82 -49 -93 -42 -5 3 -7 -3 -4 -13 7 -26 25 -103 31 -134 10 -50 -42 30 -81
125 -35 84 -37 97 -37 190 2 190 56 317 196 458 48 49 88 94 88 101 0 7 5 28
11 46 l12 32 68 -6 c49 -5 82 -3 121 9 135 40 314 27 456 -33 l71 -31 5 27 c3
15 15 81 26 147 12 66 43 246 71 400 27 154 49 305 49 335 0 115 -62 215 -163
265 -54 26 -99 32 -472 63 l-90 7 -5 1150 c-5 1073 -6 1153 -23 1195 -40 102
-125 183 -230 220 -47 17 -95 19 -472 21 l-420 2 0 -21 c-1 -36 -15 -37 -17
-1 -1 34 -4 64 -7 85 0 6 -13 16 -28 23 -16 7 -25 9 -20 5z m583 -119 c-16
-16 -61 -21 -51 -6 3 5 -3 12 -12 14 -10 3 4 5 30 6 43 1 47 -1 33 -14z m122
8 c-10 -2 -26 -2 -35 0 -10 3 -2 5 17 5 19 0 27 -2 18 -5z m-781 -2473 c54 -6
294 -28 533 -50 239 -22 509 -46 600 -55 91 -8 272 -23 402 -34 162 -14 246
-25 267 -35 34 -18 46 -32 28 -34 -69 -5 -178 0 -362 17 -547 51 -780 72
-1055 96 -162 14 -338 30 -390 35 -52 5 -105 10 -117 10 -12 0 -28 7 -36 15
-13 12 -20 11 -58 -15 -77 -51 -99 -89 -132 -228 -22 -93 -32 -121 -39 -108
-5 9 -13 14 -19 11 -13 -9 -12 -1 16 147 32 167 42 189 97 217 49 24 112 27
265 11z m328 -245 c193 -20 415 -42 495 -51 80 -8 276 -28 435 -44 342 -35
352 -37 358 -54 5 -12 -45 -275 -78 -411 -12 -51 -14 -54 -11 -17 3 35 1 42
-14 42 -20 0 -32 -22 -24 -43 7 -20 -36 -35 -74 -26 -24 5 -35 3 -39 -7 -3 -8
-9 -12 -13 -9 -5 3 -20 1 -34 -5 -17 -6 -26 -6 -26 0 0 6 -9 10 -19 10 -24 0
-75 -45 -67 -59 4 -5 -4 -11 -16 -13 -18 -2 -23 -10 -23 -31 -1 -16 -7 -32
-14 -37 -11 -6 -10 -9 5 -13 52 -13 -60 -4 -386 33 -195 22 -503 56 -684 75
-182 19 -335 40 -340 45 -16 16 109 631 131 647 9 7 32 11 52 8 20 -3 194 -21
386 -40z m1530 -182 c-5 -31 -7 -32 -22 -17 -9 8 -24 14 -33 11 -12 -3 -16 1
-14 12 1 9 6 32 9 52 l6 37 30 -31 c26 -26 30 -35 24 -64z m-338 -465 c-3 -8
-6 -5 -6 6 -1 11 2 17 5 13 3 -3 4 -12 1 -19z m-279 -135 c-10 -2 -26 -2 -35
0 -10 3 -2 5 17 5 19 0 27 -2 18 -5z m175 -20 c-7 -2 -19 -2 -25 0 -7 3 -2 5
12 5 14 0 19 -2 13 -5z m-1565 -78 c67 -8 127 -17 133 -21 21 -13 -24 -219
-50 -234 -24 -12 -281 18 -299 35 -12 10 -10 29 7 115 11 56 23 106 26 111 8
12 39 11 183 -6z m490 -56 c76 -7 126 -17 133 -25 14 -17 -23 -201 -44 -222
-12 -11 -36 -11 -158 2 -79 9 -147 20 -152 25 -6 6 -2 48 9 107 19 102 40 139
72 130 9 -2 72 -10 140 -17z m502 -60 c58 -6 111 -17 118 -24 12 -11 10 -29
-8 -111 -13 -55 -26 -103 -30 -108 -10 -10 -289 19 -302 32 -11 11 20 200 36
220 6 9 22 12 46 9 19 -3 82 -11 140 -18z m-1046 -270 c75 -9 110 -17 114 -27
8 -21 -30 -203 -47 -219 -10 -10 -27 -12 -65 -8 -28 4 -94 12 -146 18 -113 14
-112 12 -84 146 22 107 27 115 79 108 22 -3 89 -11 149 -18z m465 -54 c69 -8
129 -19 135 -25 12 -12 -19 -190 -39 -216 -12 -17 -22 -17 -150 -5 -149 14
-161 16 -168 35 -5 11 26 181 38 214 6 15 32 15 184 -3z m496 -45 c142 -17
160 -24 113 -45 -26 -12 -72 -92 -107 -187 l-26 -71 -62 -18 c-95 -26 -173
-65 -173 -85 0 -10 -2 -15 -5 -13 -6 6 55 356 71 412 6 20 53 22 189 7z m1215
-163 c0 -2 -12 -14 -27 -28 l-28 -24 24 28 c23 25 31 32 31 24z m-2230 -131
l85 -11 -1 -35 c-1 -43 -32 -182 -43 -193 -9 -9 -281 22 -297 34 -13 11 22
210 40 221 11 8 61 4 216 -16z m556 -61 c12 -3 24 -11 27 -19 8 -20 -32 -198
-48 -215 -11 -12 -34 -11 -152 3 -76 9 -143 22 -150 29 -10 10 -10 28 2 92 22
120 24 125 45 133 17 6 211 -10 276 -23z"/>
<path d="M4826 4671 c-11 -17 18 -30 37 -16 16 11 16 13 1 19 -22 8 -32 8 -38
-3z"/>
<path d="M4934 4664 c-10 -8 -13 -12 -6 -9 10 5 12 -2 8 -32 -7 -43 -2 -36 13
20 11 43 11 42 -15 21z"/>
<path d="M5201 4643 c7 -10 15 -20 16 -22 1 -2 11 2 20 9 10 7 0 -4 -22 -24
l-40 -37 46 33 c53 37 53 58 2 58 -32 0 -34 -2 -22 -17z"/>
<path d="M4667 4629 c7 -7 15 -10 18 -7 3 3 -2 9 -12 12 -14 6 -15 5 -6 -5z"/>
<path d="M4660 4599 c0 -6 -8 -8 -17 -5 -11 4 -8 -2 7 -14 14 -11 30 -20 35
-19 6 0 2 4 -8 10 -14 8 -16 14 -6 25 8 10 8 14 0 14 -6 0 -11 -5 -11 -11z"/>
<path d="M5324 4557 c-22 -18 -51 -40 -65 -49 l-24 -16 30 5 c23 3 27 2 15 -6
-12 -8 -6 -11 25 -10 34 1 36 2 15 8 l-25 7 24 8 c22 8 23 9 7 18 -16 9 -14
13 16 39 45 38 33 36 -18 -4z m-19 -37 c-3 -5 -12 -10 -18 -10 -7 0 -6 4 3 10
19 12 23 12 15 0z"/>
<path d="M5510 4543 c0 -7 0 -15 0 -18 1 -14 -27 -32 -45 -28 -11 2 -14 1 -6
-3 8 -4 30 -17 49 -30 55 -37 102 -30 109 16 3 23 -15 37 -55 45 -20 4 -40 12
-44 18 -6 9 -8 9 -8 0z m37 -29 c-3 -3 -12 -4 -19 -1 -8 3 -5 6 6 6 11 1 17
-2 13 -5z"/>
<path d="M4901 4464 c0 -11 3 -14 6 -6 3 7 2 16 -1 19 -3 4 -6 -2 -5 -13z"/>
<path d="M5071 4464 c0 -11 3 -14 6 -6 3 7 2 16 -1 19 -3 4 -6 -2 -5 -13z"/>
<path d="M5362 4474 c9 -3 19 -15 22 -27 4 -18 4 -18 3 3 -1 17 -8 25 -22 27
-14 1 -15 0 -3 -3z"/>
<path d="M4731 4454 c0 -11 3 -14 6 -6 3 7 2 16 -1 19 -3 4 -6 -2 -5 -13z"/>
<path d="M4678 4413 c6 -2 18 -2 25 0 6 3 1 5 -13 5 -14 0 -19 -2 -12 -5z"/>
<path d="M4978 4413 c7 -3 16 -2 19 1 4 3 -2 6 -13 5 -11 0 -14 -3 -6 -6z"/>
<path d="M5474 4356 c11 -9 27 -16 35 -15 14 0 14 1 1 6 -8 3 -24 10 -35 15
-20 9 -20 9 -1 -6z"/>
<path d="M5558 4333 c12 -2 32 -2 45 0 12 2 2 4 -23 4 -25 0 -35 -2 -22 -4z"/>
<path d="M4300 3120 c-9 -6 -10 -10 -3 -10 6 0 15 5 18 10 8 12 4 12 -15 0z"/>
<path d="M1741 6714 c0 -11 3 -14 6 -6 3 7 2 16 -1 19 -3 4 -6 -2 -5 -13z"/>
<path d="M3853 6453 c5 -6 5 -18 0 -26 -12 -21 -100 -87 -107 -80 -3 4 -6 -2
-6 -13 0 -15 -2 -16 -9 -5 -7 11 -10 6 -13 -19 -5 -52 -41 -73 -125 -72 l-68
0 -49 -51 c-34 -35 -56 -51 -70 -49 -42 5 10 -18 71 -31 l58 -14 -3 -47 c-5
-56 9 -76 52 -76 67 0 75 7 78 68 3 56 3 56 41 64 117 24 197 115 197 223 0
43 -18 100 -38 122 -9 10 -13 13 -9 6z m-290 -230 c-7 -2 -21 -2 -30 0 -10 3
-4 5 12 5 17 0 24 -2 18 -5z"/>
<path d="M3538 6423 c7 -3 16 -2 19 1 4 3 -2 6 -13 5 -11 0 -14 -3 -6 -6z"/>
<path d="M3578 6413 c7 -3 16 -2 19 1 4 3 -2 6 -13 5 -11 0 -14 -3 -6 -6z"/>
<path d="M3690 6376 c0 -2 8 -10 18 -17 15 -13 16 -12 3 4 -13 16 -21 21 -21
13z"/>
<path d="M5694 3894 c-18 -14 -18 -15 4 -4 12 6 22 13 22 15 0 8 -5 6 -26 -11z"/>
<path d="M5940 3245 c13 -14 26 -25 28 -25 3 0 -5 11 -18 25 -13 14 -26 25
-28 25 -3 0 5 -11 18 -25z"/>
</g>
</svg>
