<?xml version="1.0" standalone="no"?>
<!DOCTYPE svg PUBLIC "-//W3C//DTD SVG 20010904//EN"
 "http://www.w3.org/TR/2001/REC-SVG-20010904/DTD/svg10.dtd">
<svg version="1.0" xmlns="http://www.w3.org/2000/svg"
 width="1024.000000pt" height="1536.000000pt" viewBox="0 0 1024.000000 1536.000000"
 preserveAspectRatio="xMidYMid meet">

<g transform="translate(0.000000,1536.000000) scale(0.100000,-0.100000)"
fill="#000000" stroke="none">
<path d="M5475 9290 c-167 -34 -297 -134 -342 -262 -21 -63 -23 -192 -3 -253
16 -49 79 -150 88 -141 3 4 2 10 -4 14 -6 4 -27 34 -45 67 -33 59 -34 62 -34
180 0 111 2 124 27 170 34 65 108 134 180 168 80 38 96 34 20 -6 -156 -80
-227 -213 -203 -380 9 -67 57 -177 80 -185 6 -2 0 13 -14 34 -63 93 -74 270
-22 370 46 91 150 162 282 195 39 9 60 17 47 18 -13 1 -20 6 -17 11 3 6 5 10
3 9 -2 -1 -21 -5 -43 -9z m10 -20 c-16 -4 -39 -8 -50 -8 l-20 -1 20 9 c11 5
34 8 50 8 l30 0 -30 -8z"/>
<path d="M5795 9291 c11 -5 45 -14 75 -21 69 -15 186 -71 223 -105 15 -14 27
-35 27 -47 0 -23 -31 -80 -91 -166 -21 -30 -39 -60 -39 -65 0 -23 132 187 137
218 5 30 1 39 -28 66 -58 54 -180 106 -289 123 -24 3 -29 2 -15 -3z"/>
<path d="M5648 9273 c6 -2 18 -2 25 0 6 3 1 5 -13 5 -14 0 -19 -2 -12 -5z"/>
<path d="M5815 9256 c119 -32 249 -100 260 -136 7 -21 -9 -56 -63 -140 -19
-30 -28 -49 -20 -43 8 7 34 45 57 84 51 84 49 106 -10 148 -53 39 -174 89
-230 95 l-44 5 50 -13z"/>
<path d="M2411 9184 c0 -11 3 -14 6 -6 3 7 2 16 -1 19 -3 4 -6 -2 -5 -13z"/>
<path d="M2412 9010 c0 -19 2 -27 5 -17 2 9 2 25 0 35 -3 9 -5 1 -5 -18z"/>
<path d="M2413 8760 c0 -25 2 -35 4 -22 2 12 2 32 0 45 -2 12 -4 2 -4 -23z"/>
<path d="M6005 8728 c17 -12 60 -52 96 -88 84 -84 104 -135 104 -271 0 -88 -2
-100 -34 -162 -52 -103 -145 -178 -269 -218 -39 -12 -49 -18 -31 -18 42 -1
180 73 234 126 27 28 61 76 79 113 29 60 31 73 31 170 0 99 -2 110 -33 172
-34 69 -106 145 -174 181 l-33 18 30 -23z"/>
<path d="M6469 8701 l-24 -19 -1 -1074 -1 -1073 -84 0 -84 0 -3 685 c-3 667
-3 686 -23 705 -18 18 -35 20 -217 23 -108 2 -194 1 -191 -3 5 -5 249 -15 356
-15 67 0 63 40 63 -714 0 -563 2 -686 14 -695 19 -16 166 -7 177 10 5 8 8 474
7 1077 l-3 1064 24 19 c22 18 42 19 292 19 265 0 268 0 283 -22 14 -20 16
-140 14 -1118 l-3 -1095 -5 1091 c-5 1056 -6 1093 -24 1113 -18 20 -28 21
-267 21 -212 0 -250 -2 -263 -16 -14 -14 -16 -128 -16 -1110 l0 -1094 -133 0
-134 0 -1 701 c0 412 -4 705 -9 710 -5 5 -95 8 -204 7 l-194 -3 -6 -43 c-3
-23 -11 -48 -18 -55 -6 -6 -53 -15 -104 -18 l-92 -7 91 2 c110 1 134 15 134
78 l0 38 195 0 195 0 0 -712 0 -713 145 0 145 0 0 1101 c0 842 3 1103 12 1112
9 9 79 12 254 12 l243 0 20 -26 c21 -27 21 -29 21 -1114 0 -959 2 -1087 15
-1087 13 0 15 130 15 1109 0 1095 0 1108 -20 1128 -19 19 -33 20 -294 20 -255
0 -275 -1 -297 -19z"/>
<path d="M6005 8678 c106 -83 141 -138 154 -246 20 -155 -33 -277 -150 -352
-56 -36 -167 -80 -203 -80 -20 0 -24 -6 -30 -46 -3 -26 -6 -62 -6 -80 0 -21
-8 -42 -21 -55 -18 -18 -30 -20 -85 -17 -35 2 -64 0 -64 -4 0 -4 32 -8 70 -8
83 0 110 18 110 74 0 18 3 53 6 78 l6 44 57 13 c136 31 248 115 296 223 25 55
29 74 28 153 -1 146 -52 241 -163 307 l-35 20 30 -24z"/>
<path d="M5230 8611 c0 -6 4 -13 10 -16 6 -3 7 1 4 9 -7 18 -14 21 -14 7z"/>
<path d="M5193 8377 c-38 -40 -80 -94 -92 -120 -35 -71 -20 -104 73 -162 77
-47 221 -106 259 -104 12 0 -7 9 -43 20 -77 22 -189 76 -248 118 -37 27 -42
36 -42 69 0 47 40 112 117 194 31 32 54 58 51 58 -3 0 -37 -33 -75 -73z"/>
<path d="M5202 8332 c-28 -38 -59 -83 -68 -101 -16 -32 -16 -33 12 -63 63 -65
287 -161 368 -157 12 1 -6 7 -39 14 -83 18 -180 56 -245 95 -73 44 -90 60 -90
82 0 22 39 87 92 151 22 26 36 47 31 47 -5 0 -32 -31 -61 -68z"/>
<path d="M5811 8374 c0 -11 3 -14 6 -6 3 7 2 16 -1 19 -3 4 -6 -2 -5 -13z"/>
<path d="M2411 8224 c0 -11 3 -14 6 -6 3 7 2 16 -1 19 -3 4 -6 -2 -5 -13z"/>
<path d="M2412 8155 c0 -16 2 -22 5 -12 2 9 2 23 0 30 -3 6 -5 -1 -5 -18z"/>
<path d="M2413 7805 c0 -27 2 -38 4 -22 2 15 2 37 0 50 -2 12 -4 0 -4 -28z"/>
<path d="M5542 7830 c0 -14 2 -19 5 -12 2 6 2 18 0 25 -3 6 -5 1 -5 -13z"/>
<path d="M2412 7670 c0 -14 2 -19 5 -12 2 6 2 18 0 25 -3 6 -5 1 -5 -13z"/>
<path d="M2413 7580 c0 -36 2 -50 4 -32 2 17 2 47 0 65 -2 17 -4 3 -4 -33z"/>
<path d="M4599 7551 l-24 -19 -3 -500 -3 -500 -80 -4 c-44 -2 -83 -1 -85 1 -2
2 -4 132 -4 287 0 297 -4 327 -44 341 -12 3 -162 6 -334 6 -282 -1 -316 -3
-333 -19 -18 -16 -19 -34 -19 -293 0 -152 -3 -286 -6 -298 -6 -23 -7 -23 -230
-23 -148 0 -232 -4 -249 -12 -24 -11 -27 -14 -29 -38 -1 -7 95 -11 282 -13
l282 -2 0 317 c0 316 0 317 22 332 19 14 65 16 298 16 201 0 279 -3 288 -12 9
-9 12 -96 12 -330 l0 -318 140 0 c77 0 142 -1 145 -2 3 -2 5 227 5 508 0 424
2 513 14 523 9 8 95 11 302 9 l289 -3 3 -520 2 -520 120 3 120 3 -1 32 c-2 30
-2 31 -6 5 l-4 -28 -110 0 -109 0 0 514 c0 401 -3 517 -12 523 -7 4 -138 9
-291 11 -241 3 -282 1 -303 -13 l-24 -15 0 -510 0 -510 -135 0 -135 0 0 320
c0 305 -1 320 -19 330 -12 6 -127 10 -305 10 -283 0 -285 0 -300 -22 -14 -19
-16 -68 -16 -330 l0 -308 -270 0 c-179 0 -270 3 -270 10 0 18 20 20 258 22
194 3 234 5 242 18 6 9 10 139 10 302 0 247 2 289 16 302 13 14 58 16 333 16
258 0 321 -3 337 -14 18 -14 19 -31 22 -312 2 -219 6 -300 15 -306 16 -10 149
-10 165 0 10 7 13 116 15 505 2 461 3 498 20 514 16 16 46 18 327 21 l310 3
25 -25 25 -25 0 -494 0 -494 31 -7 c48 -9 117 -7 124 4 4 6 -22 10 -69 10
l-76 0 0 495 0 496 -25 24 -24 25 -314 0 c-295 0 -316 -1 -338 -19z"/>
<path d="M2413 7375 c0 -33 2 -45 4 -27 2 18 2 45 0 60 -2 15 -4 0 -4 -33z"/>
<path d="M2412 7285 c0 -16 2 -22 5 -12 2 9 2 23 0 30 -3 6 -5 -1 -5 -18z"/>
<path d="M2413 7205 c0 -22 2 -30 4 -17 2 12 2 30 0 40 -3 9 -5 -1 -4 -23z"/>
<path d="M2413 7125 c0 -22 2 -30 4 -17 2 12 2 30 0 40 -3 9 -5 -1 -4 -23z"/>
<path d="M2412 7060 c0 -14 2 -19 5 -12 2 6 2 18 0 25 -3 6 -5 1 -5 -13z"/>
<path d="M2413 6840 c0 -25 2 -35 4 -22 2 12 2 32 0 45 -2 12 -4 2 -4 -23z"/>
<path d="M2412 6715 c0 -16 2 -22 5 -12 2 9 2 23 0 30 -3 6 -5 -1 -5 -18z"/>
<path d="M2412 6660 c0 -14 2 -19 5 -12 2 6 2 18 0 25 -3 6 -5 1 -5 -13z"/>
<path d="M2413 6520 c0 -25 2 -35 4 -22 2 12 2 32 0 45 -2 12 -4 2 -4 -23z"/>
<path d="M2412 6330 c0 -19 2 -27 5 -17 2 9 2 25 0 35 -3 9 -5 1 -5 -18z"/>
<path d="M2411 6224 c0 -11 3 -14 6 -6 3 7 2 16 -1 19 -3 4 -6 -2 -5 -13z"/>
<path d="M2412 6180 c0 -14 2 -19 5 -12 2 6 2 18 0 25 -3 6 -5 1 -5 -13z"/>
<path d="M2411 5774 c0 -11 3 -14 6 -6 3 7 2 16 -1 19 -3 4 -6 -2 -5 -13z"/>
</g>
</svg>
